<?xml version="1.0" standalone="no"?>
<!DOCTYPE svg PUBLIC "-//W3C//DTD SVG 20010904//EN"
 "http://www.w3.org/TR/2001/REC-SVG-20010904/DTD/svg10.dtd">
<svg version="1.0" xmlns="http://www.w3.org/2000/svg"
 width="500.000000pt" height="500.000000pt" viewBox="0 0 500.000000 500.000000"
 preserveAspectRatio="xMidYMid meet">

<g  transform="translate(0.000000,500.000000) scale(0.100000,-0.100000)"
fill="#000000" opacity="0.18" stroke="none">
<path d="M2455 3619 c-283 -27 -497 -301 -457 -584 39 -271 279 -470 547 -452
390 26 616 449 419 785 -103 175 -298 272 -509 251z m5 -351 c0 -60 1 -62 16
-40 15 22 17 22 30 5 12 -16 13 -11 14 40 l0 57 65 0 65 0 0 -130 0 -131 -157
3 -158 3 -3 128 -3 127 66 0 65 0 0 -62z m-20 -293 c14 -17 85 -21 95 -5 4 6
-6 10 -23 10 -31 0 -58 22 -47 40 3 5 35 10 70 10 63 0 64 -1 98 -42 50 -64
51 -64 11 -88 -29 -19 -40 -21 -60 -11 -14 6 -51 11 -82 11 -67 0 -67 0 -126
69 -35 42 -43 57 -35 68 9 10 19 7 49 -17 20 -16 43 -36 50 -45z"/>
<path d="M2550 3120 c0 -18 5 -21 38 -18 25 2 37 8 37 18 0 10 -12 16 -37 18
-33 3 -38 0 -38 -18z"/>
<path d="M1510 2745 c0 -45 0 -45 35 -45 41 0 47 17 8 23 l-28 4 28 2 c37 2
34 21 -4 21 -17 0 -28 4 -24 10 3 6 17 10 31 10 13 0 24 5 24 10 0 6 -16 10
-35 10 -35 0 -35 0 -35 -45z"/>
<path d="M1620 2761 c0 -26 4 -30 33 -34 l32 -4 -32 -1 c-18 -1 -33 -7 -33
-13 0 -6 16 -9 38 -7 29 2 37 7 37 23 0 14 -8 21 -27 23 -16 2 -28 8 -28 13 0
6 11 9 25 7 13 -2 25 2 27 7 2 6 -14 11 -34 13 -36 3 -38 2 -38 -27z"/>
<path d="M1730 2780 c0 -5 7 -10 15 -10 10 0 15 -11 15 -35 0 -19 5 -35 10
-35 6 0 10 16 10 35 0 24 5 35 15 35 8 0 15 5 15 10 0 6 -18 10 -40 10 -22 0
-40 -4 -40 -10z"/>
<path d="M3170 2777 c0 -9 10 -12 33 -10 l32 4 -33 -28 c-18 -15 -32 -31 -32
-35 0 -5 18 -8 40 -8 22 0 40 5 40 10 0 6 -10 10 -22 10 l-23 0 24 19 c34 26
22 51 -24 51 -22 0 -35 -5 -35 -13z"/>
<path d="M3284 2776 c-3 -8 -4 -27 -2 -43 3 -24 8 -28 41 -31 l37 -3 0 45 c0
46 0 46 -35 46 -22 0 -38 -6 -41 -14z m46 -10 c0 -2 -7 -9 -15 -16 -12 -10
-15 -10 -15 4 0 9 7 16 15 16 8 0 15 -2 15 -4z m10 -31 c0 -8 -4 -15 -10 -15
-5 0 -7 7 -4 15 4 8 8 15 10 15 2 0 4 -7 4 -15z"/>
<path d="M3400 2777 c0 -9 10 -12 33 -9 l32 4 -35 -30 c-41 -35 -37 -45 16
-40 37 4 38 4 15 14 l-24 11 23 16 c32 23 20 47 -25 47 -22 0 -35 -5 -35 -13z"/>
<path d="M3510 2776 c0 -9 9 -12 28 -8 26 4 26 4 7 -11 -20 -15 -20 -16 5 -26
24 -10 24 -10 -7 -10 -45 -1 -42 -21 2 -21 39 0 55 21 35 45 -9 10 -9 15 -1
15 6 0 11 7 11 15 0 11 -11 15 -40 15 -27 0 -40 -4 -40 -14z"/>
<path d="M1825 2710 c-3 -5 -1 -10 4 -10 6 0 11 5 11 10 0 6 -2 10 -4 10 -3 0
-8 -4 -11 -10z"/>
<path d="M1730 2250 c-19 -19 -20 -33 -20 -235 0 -202 1 -216 20 -235 23 -23
68 -26 96 -6 18 13 19 30 22 228 3 205 2 215 -18 241 -26 33 -71 36 -100 7z
m78 -22 c9 -9 12 -70 12 -214 0 -217 -3 -229 -52 -222 l-23 3 -3 214 c-3 222
-1 230 39 231 8 0 20 -5 27 -12z"/>
<path d="M2060 2250 c-17 -17 -20 -33 -20 -106 0 -81 1 -87 29 -112 15 -15 40
-35 55 -45 24 -17 26 -23 26 -96 0 -85 -10 -105 -52 -99 -21 3 -23 9 -26 61
-2 42 -7 57 -17 57 -25 0 -20 -105 5 -130 20 -20 65 -26 87 -12 31 20 43 121
23 194 -8 28 -21 43 -56 63 l-45 26 3 86 c2 69 6 88 21 97 30 19 52 -4 55 -63
2 -39 7 -51 19 -51 25 0 11 109 -18 133 -28 23 -64 22 -89 -3z"/>
<path d="M4372 2254 c-22 -15 -22 -19 -22 -238 0 -203 2 -224 18 -239 25 -22
75 -21 95 1 15 16 17 48 17 240 0 217 0 221 -22 236 -12 9 -32 16 -43 16 -11
0 -31 -7 -43 -16z m78 -33 c15 -29 13 -404 -2 -419 -18 -18 -56 -14 -68 7 -6
12 -10 97 -10 206 0 109 4 194 10 206 6 11 21 19 35 19 14 0 29 -8 35 -19z"/>
<path d="M530 2015 l0 -245 55 0 c42 0 55 3 55 15 0 11 -12 15 -45 15 l-46 0
3 98 3 97 38 3 c53 5 51 32 -3 32 l-41 0 3 98 3 97 43 3 c28 2 42 8 42 18 0
10 -14 14 -55 14 l-55 0 0 -245z"/>
<path d="M830 2016 c0 -157 4 -246 10 -246 6 0 10 66 10 177 0 97 2 174 5 171
3 -2 22 -80 43 -173 21 -93 44 -171 50 -173 9 -3 12 60 12 242 0 157 -4 246
-10 246 -6 0 -10 -66 -10 -177 0 -97 -2 -174 -5 -171 -3 3 -23 81 -44 174 -21
92 -43 170 -49 172 -9 3 -12 -60 -12 -242z"/>
<path d="M1143 2243 c3 -10 20 -120 38 -245 22 -157 37 -228 45 -228 15 0 15
2 54 268 18 118 29 216 26 220 -15 15 -25 -25 -45 -183 -31 -238 -34 -243 -55
-90 -33 252 -38 275 -53 275 -9 0 -13 -7 -10 -17z"/>
<path d="M1490 2015 c0 -157 4 -245 10 -245 6 0 10 88 10 245 0 157 -4 245
-10 245 -6 0 -10 -88 -10 -245z"/>
<path d="M2610 2015 l0 -245 50 0 c37 0 55 5 70 20 19 19 20 33 20 225 0 192
-1 206 -20 225 -15 15 -33 20 -70 20 l-50 0 0 -245z m99 201 c8 -9 11 -74 9
-212 l-3 -199 -37 -3 -38 -3 0 215 0 216 29 0 c16 0 34 -6 40 -14z"/>
<path d="M2930 2256 c0 -2 16 -69 35 -147 28 -114 35 -163 35 -241 0 -80 3
-98 15 -98 12 0 15 17 15 95 0 76 7 124 36 241 20 79 34 147 31 150 -14 14
-25 -13 -47 -113 -13 -59 -26 -114 -30 -121 -4 -8 -20 42 -36 109 -16 67 -35
124 -41 127 -7 2 -13 1 -13 -2z"/>
<path d="M3280 2015 c0 -209 2 -245 15 -245 12 0 15 28 17 173 l3 172 39 -172
c27 -120 43 -173 52 -173 11 0 14 46 14 245 0 209 -2 245 -15 245 -12 0 -15
-28 -17 -172 l-3 -173 -39 173 c-57 247 -66 237 -66 -73z"/>
<path d="M3641 2033 c-18 -126 -35 -236 -37 -245 -3 -11 0 -18 9 -18 10 0 17
15 22 46 l6 45 47 -3 c46 -3 47 -3 52 -42 3 -22 11 -41 18 -44 16 -5 17 -17
-23 249 -19 129 -35 235 -35 236 0 2 -6 3 -13 3 -10 0 -22 -63 -46 -227z m68
2 c7 -55 15 -110 18 -122 5 -21 2 -23 -36 -23 -48 0 -48 -4 -26 145 8 55 15
107 15 115 1 41 18 -24 29 -115z"/>
<path d="M3950 2015 c0 -209 2 -245 15 -245 12 0 15 29 17 183 l3 182 25 -128
c13 -70 27 -132 31 -139 15 -24 28 8 50 127 12 69 25 125 28 125 3 0 5 -79 3
-175 -3 -154 -2 -175 12 -175 14 0 16 28 16 246 0 191 -3 245 -12 242 -14 -5
-52 -150 -69 -266 -7 -40 -14 -71 -16 -68 -3 2 -13 46 -23 98 -36 183 -51 238
-66 238 -12 0 -14 -40 -14 -245z"/>
<path d="M1347 1433 c-4 -3 -7 -19 -7 -35 0 -25 3 -28 33 -27 29 1 30 2 7 8
-31 9 -33 35 -2 39 12 2 20 8 17 13 -7 10 -39 12 -48 2z"/>
<path d="M1448 1429 c-10 -5 -18 -21 -18 -34 0 -26 14 -33 26 -14 4 8 9 8 17
0 19 -19 28 -12 25 21 -3 35 -21 45 -50 27z m32 -19 c0 -5 -7 -10 -16 -10 -8
0 -12 5 -9 10 3 6 10 10 16 10 5 0 9 -4 9 -10z"/>
<path d="M1530 1405 c0 -32 2 -35 30 -35 25 0 30 4 30 23 0 28 -17 47 -42 47
-14 0 -18 -8 -18 -35z m48 -8 c2 -12 -3 -17 -17 -17 -15 0 -21 6 -21 21 0 25
33 22 38 -4z"/>
<path d="M1632 1428 c-13 -13 -17 -58 -4 -58 4 0 13 5 19 11 8 8 13 8 17 0 14
-22 27 -10 24 22 -3 35 -33 48 -56 25z m38 -18 c0 -5 -7 -10 -15 -10 -8 0 -15
5 -15 10 0 6 7 10 15 10 8 0 15 -4 15 -10z"/>
<path d="M1780 1404 c0 -30 3 -35 12 -26 7 7 20 12 31 12 32 0 18 44 -15 48
-26 3 -28 1 -28 -34z m50 6 c0 -5 -9 -10 -20 -10 -11 0 -20 5 -20 10 0 6 9 10
20 10 11 0 20 -4 20 -10z"/>
<path d="M1882 1428 c-7 -7 -12 -23 -12 -37 0 -19 3 -22 12 -13 7 7 17 8 30 1
16 -9 18 -6 18 26 0 27 -4 35 -18 35 -10 0 -23 -5 -30 -12z m38 -18 c0 -5 -7
-10 -15 -10 -8 0 -15 5 -15 10 0 6 7 10 15 10 8 0 15 -4 15 -10z"/>
<path d="M1967 1434 c-4 -4 -7 -20 -7 -36 0 -25 3 -28 36 -28 34 0 35 1 32 33
-2 26 -8 33 -28 35 -14 2 -29 0 -33 -4z m43 -28 c0 -8 -7 -16 -15 -20 -10 -4
-15 1 -15 14 0 11 7 20 15 20 8 0 15 -6 15 -14z"/>
<path d="M2157 1433 c-4 -3 -7 -19 -7 -35 0 -25 3 -28 33 -27 30 1 31 1 7 9
l-25 8 25 8 25 8 -25 7 c-24 7 -24 7 -2 8 12 1 22 6 22 11 0 11 -43 14 -53 3z"/>
<path d="M2250 1430 c0 -5 5 -10 10 -10 6 0 11 -12 11 -27 1 -21 2 -23 6 -8 3
11 9 24 14 30 16 16 10 25 -16 25 -14 0 -25 -4 -25 -10z"/>
<path d="M2337 1433 c-4 -3 -7 -19 -7 -35 0 -25 3 -28 33 -27 30 1 31 1 7 9
l-25 8 25 8 25 8 -25 7 c-24 7 -24 7 -2 8 12 1 22 6 22 11 0 11 -43 14 -53 3z"/>
<path d="M2627 1434 c-11 -11 -8 -64 3 -64 6 0 10 7 10 17 0 15 1 15 18 0 26
-24 32 -21 32 13 0 17 -4 30 -10 30 -5 0 -10 -8 -10 -17 0 -15 -3 -14 -18 5
-10 13 -21 20 -25 16z"/>
<path d="M2787 1433 c-4 -3 -7 -19 -7 -35 0 -26 3 -28 38 -27 30 2 32 3 10 6
-38 6 -40 43 -2 43 14 0 23 4 19 10 -7 11 -48 14 -58 3z"/>
<path d="M2877 1434 c-4 -4 -7 -20 -7 -36 0 -25 3 -28 36 -28 34 0 35 1 32 33
-2 26 -8 33 -28 35 -14 2 -29 0 -33 -4z m43 -34 c0 -11 -7 -20 -15 -20 -8 0
-15 9 -15 20 0 11 7 20 15 20 8 0 15 -9 15 -20z"/>
<path d="M3087 1434 c-4 -4 -7 -21 -7 -38 0 -23 3 -27 12 -18 7 7 20 12 31 12
26 0 19 44 -8 48 -12 2 -24 0 -28 -4z m43 -24 c0 -5 -7 -10 -15 -10 -8 0 -15
5 -15 10 0 6 7 10 15 10 8 0 15 -4 15 -10z"/>
<path d="M3177 1434 c-4 -4 -7 -19 -7 -34 0 -23 4 -26 35 -26 34 0 36 2 33 31
-2 24 -8 31 -28 33 -14 2 -29 0 -33 -4z m43 -24 c0 -5 -7 -10 -15 -10 -8 0
-15 5 -15 10 0 6 7 10 15 10 8 0 15 -4 15 -10z"/>
<path d="M3277 1434 c-4 -4 -7 -20 -7 -36 0 -25 4 -28 31 -28 28 0 30 2 27 33
-2 23 -8 33 -23 35 -12 2 -24 0 -28 -4z m43 -34 c0 -13 -7 -20 -20 -20 -13 0
-20 7 -20 20 0 13 7 20 20 20 13 0 20 -7 20 -20z"/>
<path d="M3527 1433 c-15 -14 -6 -31 21 -39 l27 -7 -30 -7 -30 -8 33 -1 c25
-1 32 3 32 18 0 12 -8 21 -22 24 l-23 4 23 2 c13 0 20 6 17 11 -7 11 -38 13
-48 3z"/>
<path d="M3617 1434 c-4 -4 -7 -20 -7 -36 0 -25 3 -28 36 -28 34 0 35 1 32 33
-2 26 -8 33 -28 35 -14 2 -29 0 -33 -4z m43 -34 c0 -11 -7 -20 -15 -20 -8 0
-15 9 -15 20 0 11 7 20 15 20 8 0 15 -9 15 -20z"/>
<path d="M2061 1403 c-1 -30 2 -33 29 -33 27 0 30 3 29 33 -2 31 -2 31 -6 4
-5 -35 -34 -33 -44 3 -6 23 -7 22 -8 -7z"/>
<path d="M2531 1403 c-1 -30 2 -33 29 -33 27 0 30 3 29 33 -2 31 -2 31 -6 4
-5 -35 -34 -33 -44 3 -6 23 -7 22 -8 -7z"/>
<path d="M2970 1398 c0 -24 3 -29 9 -19 12 19 51 22 51 4 0 -7 5 -13 10 -13 6
0 10 14 10 30 0 30 -24 43 -33 18 -4 -10 -7 -10 -18 0 -21 20 -29 14 -29 -20z"/>
<path d="M3360 1400 c0 -16 5 -30 10 -30 6 0 10 6 10 14 0 9 7 12 20 9 11 -3
20 -9 20 -14 0 -5 5 -9 10 -9 6 0 10 14 10 30 0 32 -9 37 -28 18 -9 -9 -15 -9
-24 0 -19 19 -28 14 -28 -18z"/>
<path d="M3470 1400 c0 -16 5 -30 10 -30 6 0 10 14 10 30 0 17 -4 30 -10 30
-5 0 -10 -13 -10 -30z"/>
</g>
</svg>
