<?xml version="1.0" standalone="no"?>
<!DOCTYPE svg PUBLIC "-//W3C//DTD SVG 20010904//EN"
 "http://www.w3.org/TR/2001/REC-SVG-20010904/DTD/svg10.dtd">
<svg version="1.0" xmlns="http://www.w3.org/2000/svg"
 width="117.000000pt" height="130.000000pt" viewBox="0 0 117.000000 130.000000"
 preserveAspectRatio="xMidYMid meet">

<g transform="translate(0.000000,130.000000) scale(0.100000,-0.100000)"
fill="#000000" stroke="none">
<path d="M545 1139 c-283 -27 -497 -301 -457 -584 39 -271 279 -470 547 -452
390 26 616 449 419 785 -103 175 -298 272 -509 251z m5 -351 c0 -60 1 -62 16
-40 15 22 17 22 30 5 12 -16 13 -11 14 40 l0 57 65 0 65 0 0 -130 0 -131 -157
3 -158 3 -3 128 -3 127 66 0 65 0 0 -62z m-20 -293 c14 -17 85 -21 95 -5 4 6
-6 10 -23 10 -31 0 -58 22 -47 40 3 5 35 10 70 10 63 0 64 -1 98 -42 50 -64
51 -64 11 -88 -29 -19 -40 -21 -60 -11 -14 6 -51 11 -82 11 -67 0 -67 0 -126
69 -35 42 -43 57 -35 68 9 10 19 7 49 -17 20 -16 43 -36 50 -45z"/>
<path d="M640 640 c0 -18 5 -21 38 -18 25 2 37 8 37 18 0 10 -12 16 -37 18
-33 3 -38 0 -38 -18z"/>
</g>
</svg>
